<svg width="60" height="60" viewBox="0 0 60 60" fill="none" xmlns="http://www.w3.org/2000/svg">
<g clip-path="url(#clip0_5603_186)">
<path d="M59.1021 37.2574C55.0949 53.329 38.8152 63.1098 22.7399 59.1021C6.67134 55.0954 -3.11061 38.8164 0.898313 22.7462C4.90372 6.67282 21.1835 -3.10877 37.2538 0.897946C53.3279 4.90466 63.1093 21.1854 59.1017 37.2577L59.102 37.2574H59.1021Z" fill="#F7931A"/>
<path d="M42.2306 23.7256C42.8277 19.7332 39.7879 17.5872 35.6312 16.1556L36.9796 10.7476L33.6873 9.92732L32.3746 15.1929C31.509 14.9771 30.6201 14.7737 29.7367 14.5721L31.0589 9.2717L27.7686 8.45142L26.4194 13.8576C25.7031 13.6946 24.9996 13.5334 24.3171 13.3636L24.3209 13.3466L19.7807 12.213L18.9049 15.729C18.9049 15.729 21.3475 16.2889 21.296 16.3233C22.6293 16.6561 22.8704 17.5385 22.8303 18.238L21.2943 24.3989C21.3861 24.4223 21.5052 24.456 21.6366 24.5088C21.5267 24.4815 21.4098 24.4517 21.2886 24.4227L19.1355 33.0533C18.9726 33.4583 18.559 34.0662 17.6269 33.8353C17.6599 33.8832 15.234 33.2382 15.234 33.2382L13.5994 37.0065L17.8839 38.0745C18.6809 38.2743 19.462 38.4835 20.2312 38.6801L18.8688 44.1501L22.1573 44.9704L23.5066 39.5585C24.405 39.8023 25.2768 40.0273 26.1303 40.2393L24.7857 45.6257L28.0782 46.446L29.4405 40.9863C35.0547 42.0486 39.2761 41.6203 41.0529 36.5429C42.4847 32.4549 40.9817 30.097 38.0281 28.5593C40.1793 28.0633 41.7997 26.6485 42.2317 23.726L42.2306 23.7256ZM34.7083 34.2726C33.6908 38.3606 26.8071 36.1507 24.5754 35.5966L26.3833 28.3498C28.6149 28.9069 35.7715 30.0093 34.7083 34.2726ZM35.7265 23.6663C34.7983 27.3848 29.069 25.4956 27.2104 25.0324L28.8496 18.46C30.7081 18.9232 36.6931 19.7878 35.7265 23.6663Z" fill="white"/>
<circle cx="41" cy="41" r="13.5" fill="white" stroke="black"/>
<path d="M48.127 32.4687L42.9507 35.0062V32.5755L42.5518 32.4687L39.0327 35.0126V46.9052L42.5518 49.4492L42.9507 49.3518V46.9117L48.127 49.4492L48.4668 49.3265V35.3792V32.6008L48.127 32.4687Z" fill="#030303"/>
<path d="M35.7791 35.0126V46.9052L37.9057 49.4492L38.3558 49.3861V32.5412L37.9057 32.4687L35.7791 35.0126Z" fill="#030303"/>
<path d="M33.0669 35.0126V46.9052L34.0336 49.4492L34.5433 49.4114V32.5159L34.0336 32.4687L33.0669 35.0126Z" fill="#030303"/>
</g>
<defs>
<clipPath id="clip0_5603_186">
<rect width="60" height="60" fill="white"/>
</clipPath>
</defs>
</svg>
